<svg width="1011" height="948" viewBox="0 0 1011 948" fill="none" xmlns="http://www.w3.org/2000/svg">
<g clip-path="url(#clip0_8_79)">
<path d="M728.403 143.373C829.903 158.373 936.403 209.873 866.403 308.873C652.903 536.373 305.903 608.374 192.903 549.874C90.9027 500.874 102.903 409.873 213.403 315.873C105.188 425.841 123.903 501.874 202.403 530.874C319.403 577.374 569.903 513.373 704.403 417.373C737.006 397.253 762.753 377.292 836.903 308.873C702.344 405.66 622.437 444.55 474.403 494.873C613.183 437.088 689.996 401.883 812.403 297.873C712.208 360.463 656.66 389.616 558.403 433.873C627.711 398.32 666.143 375.921 732.403 322.873C675.561 354.019 643.586 369.567 586.403 394.873C615.545 378.956 631.232 369.049 655.903 346.373C459.903 440.373 309.403 458.373 263.403 402.373C243.903 353.873 241.903 274.373 238.903 203.873C238.903 61.2981 332.821 5.02569 466.955 4.31401C478.621 3.99956 490.622 4.33672 502.903 5.37341C490.638 4.61191 478.644 4.25199 466.955 4.31401C332.332 7.94271 242.332 98.3449 281.903 201.873C300.903 237.373 331.246 257.16 383.903 255.873C343.672 260.654 322.077 264.246 285.403 272.373C350.593 275.807 393.061 274.518 498.903 255.873C425.477 272.314 383.742 280.694 306.403 291.373C425.475 292.023 485.308 281.8 581.403 247.373C464.115 294.788 399.574 308.676 298.403 309.373C388.375 327.833 543.403 302.873 637.903 242.873C742.403 180.873 681.403 39.3735 539.403 72.3735C566.403 60.0148 581.117 52.3232 606.403 36.8735C559.656 47.3512 532.841 58.4031 484.403 83.3735C525.266 60.2218 548.232 47.6693 589.403 26.8735C521.648 43.1318 483.662 61.4613 415.903 100.373C468.033 65.3214 497.89 47.1463 554.403 22.3735C462.169 50.8312 408.975 77.8545 311.903 142.373C386.77 83.3902 429.301 50.6417 531.403 7.37347C547.403 -0.626611 620.903 -11.6266 660.403 32.3735C712.403 129.873 712.403 154.373 734.403 255.873C737.248 211.942 735.351 187.31 728.403 143.373Z" fill="black" stroke="black" stroke-width="4" stroke-linejoin="round"/>
<path d="M80.3627 848.066C68.006 848.066 55.4247 846.493 42.6187 843.348C29.8127 840.427 19.141 836.496 10.6037 831.553L12.2887 785.721H15.6587L26.1057 807.626C29.251 813.917 32.621 819.533 36.2157 824.476C39.8103 829.194 44.753 832.901 51.0437 835.597C55.537 837.844 59.8057 839.416 63.8497 840.315C68.1183 840.989 72.8363 841.326 78.0037 841.326C91.7083 841.326 102.492 837.619 110.356 830.205C118.444 822.791 122.488 813.243 122.488 801.56C122.488 790.551 119.792 782.014 114.4 775.948C109.008 769.657 100.358 763.591 88.4507 757.75L74.6337 751.684C55.3123 743.147 40.1473 733.374 29.1387 722.365C18.3547 711.132 12.9627 696.304 12.9627 677.881C12.9627 664.626 16.3327 653.168 23.0727 643.507C30.0373 633.846 39.5857 626.432 51.7177 621.265C64.0743 616.098 78.453 613.514 94.8537 613.514C106.761 613.514 117.994 615.087 128.554 618.232C139.338 621.377 148.661 625.646 156.525 631.038L154.503 671.478H151.133L137.316 646.203C133.496 638.34 129.677 632.835 125.858 629.69C122.038 626.32 117.657 623.961 112.715 622.613C109.794 621.714 107.098 621.153 104.627 620.928C102.155 620.479 99.01 620.254 95.1907 620.254C83.7327 620.254 74.072 623.624 66.2087 630.364C58.3453 636.879 54.4137 645.754 54.4137 656.987C54.4137 668.445 57.4467 677.656 63.5127 684.621C69.5787 691.361 78.453 697.427 90.1357 702.819L105.638 709.559C127.206 718.995 142.708 729.105 152.144 739.889C161.58 750.448 166.298 764.153 166.298 781.003C166.298 800.774 158.771 816.95 143.719 829.531C128.891 841.888 107.772 848.066 80.3627 848.066ZM289.129 848.066C275.424 848.066 262.169 845.595 249.363 840.652C236.782 835.709 225.436 828.408 215.326 818.747C205.441 808.862 197.577 796.617 191.736 782.014C185.895 767.411 182.974 750.336 182.974 730.79C182.974 711.469 185.895 694.506 191.736 679.903C197.577 665.3 205.553 653.168 215.663 643.507C225.773 633.622 237.119 626.208 249.7 621.265C262.506 616.098 275.649 613.514 289.129 613.514C302.834 613.514 315.977 615.985 328.558 620.928C341.364 625.646 352.71 632.948 362.595 642.833C372.705 652.494 380.681 664.738 386.522 679.566C392.363 694.169 395.284 711.244 395.284 730.79C395.284 749.887 392.363 766.849 386.522 781.677C380.681 796.28 372.705 808.525 362.595 818.41C352.71 828.071 341.364 835.485 328.558 840.652C315.977 845.595 302.834 848.066 289.129 848.066ZM289.129 840.989C301.486 840.989 311.483 837.731 319.122 831.216C326.761 824.476 332.265 813.13 335.635 797.179C339.23 781.003 341.027 758.873 341.027 730.79C341.027 702.482 339.23 680.352 335.635 664.401C332.265 648.225 326.761 636.879 319.122 630.364C311.483 623.624 301.486 620.254 289.129 620.254C276.997 620.254 267.112 623.624 259.473 630.364C251.834 636.879 246.218 648.225 242.623 664.401C239.253 680.352 237.568 702.482 237.568 730.79C237.568 758.873 239.253 781.003 242.623 797.179C246.218 813.13 251.834 824.476 259.473 831.216C267.112 837.731 276.997 840.989 289.129 840.989ZM407.211 842V838.63L418.332 835.26C422.376 834.137 425.296 832.002 427.094 828.857C428.891 825.487 429.79 821.555 429.79 817.062V654.965C427.318 649.573 425.296 645.529 423.724 642.833C422.376 640.137 420.803 637.89 419.006 636.093C417.208 634.071 414.737 631.6 411.592 628.679L405.863 622.95V619.58H465.512L577.396 772.241V645.192C577.396 640.699 576.609 636.655 575.037 633.06C573.689 629.465 570.768 627.106 566.275 625.983L555.154 622.95V619.58H603.345V622.95L594.246 625.983C590.202 627.331 587.73 629.69 586.832 633.06C585.933 636.43 585.484 640.362 585.484 644.855V843.011H566.612L437.878 666.086V817.062C437.878 821.555 438.552 825.375 439.9 828.52C441.248 831.665 444.056 833.912 448.325 835.26L458.435 838.63V842H407.211ZM619.707 842V838.63L627.458 835.597C631.278 834.024 633.861 832.002 635.209 829.531C636.782 826.835 637.568 823.24 637.568 818.747V642.833C637.568 638.34 636.894 634.857 635.546 632.386C634.423 629.69 631.727 627.556 627.458 625.983L619.707 622.95V619.58H781.13L783.152 671.478H779.782L765.291 639.8C763.269 635.756 761.135 632.498 758.888 630.027C756.642 627.556 753.272 626.32 748.778 626.32H688.118V723.713H724.177C728.671 723.713 732.041 722.59 734.287 720.343C736.759 717.872 738.893 714.614 740.69 710.57L747.43 697.09H750.8V757.75H747.43L740.69 743.596C738.668 739.552 736.534 736.407 734.287 734.16C732.041 731.689 728.671 730.453 724.177 730.453H688.118V835.26H756.192C760.686 835.26 764.168 834.137 766.639 831.89C769.111 829.419 771.133 826.049 772.705 821.78L786.522 790.102H789.892L787.87 842H619.707ZM851.795 842V838.63L865.612 835.26C874.823 833.238 879.429 827.621 879.429 818.41V626.32H850.784C842.471 626.32 836.518 628.567 832.923 633.06C829.328 637.329 825.509 643.282 821.465 650.921L809.333 674.511H805.963L807.648 619.58H1002.1L1003.45 674.511H1000.08L987.943 650.921C984.124 643.282 980.417 637.329 976.822 633.06C973.227 628.567 967.274 626.32 958.961 626.32H930.316V818.41C930.316 827.621 934.922 833.238 944.133 835.26L957.95 838.63V842H851.795Z" fill="black"/>
<rect x="12" y="910" width="218" height="6" fill="black"/>
<rect x="782" y="910" width="218" height="6" fill="black"/>
<path d="M256.075 930.278L274.231 885.6H256.965V876.7H284.733V885.422L266.577 930.1H284.733V939H256.075V930.278ZM290.278 876.7H316.978V885.6H300.068V902.065H313.507V910.965H300.068V930.1H316.978V939H290.278V876.7ZM335.511 939.89C330.764 939.89 327.174 938.555 324.742 935.885C322.309 933.156 321.093 929.269 321.093 924.226V920.666H330.349V924.938C330.349 928.973 332.04 930.99 335.422 930.99C337.083 930.99 338.329 930.515 339.16 929.566C340.05 928.557 340.495 926.955 340.495 924.76C340.495 922.149 339.901 919.865 338.715 917.907C337.528 915.89 335.333 913.487 332.129 910.698C328.094 907.138 325.276 903.934 323.674 901.086C322.072 898.179 321.271 894.915 321.271 891.296C321.271 886.371 322.517 882.574 325.009 879.904C327.501 877.175 331.12 875.81 335.867 875.81C340.554 875.81 344.084 877.175 346.458 879.904C348.89 882.574 350.107 886.431 350.107 891.474V894.055H340.851V890.851C340.851 888.715 340.435 887.172 339.605 886.223C338.774 885.214 337.558 884.71 335.956 884.71C332.692 884.71 331.061 886.698 331.061 890.673C331.061 892.928 331.654 895.034 332.841 896.992C334.087 898.95 336.312 901.323 339.516 904.112C343.61 907.672 346.428 910.906 347.971 913.813C349.513 916.72 350.285 920.132 350.285 924.048C350.285 929.151 349.009 933.067 346.458 935.796C343.966 938.525 340.317 939.89 335.511 939.89ZM355.898 876.7H370.316C375.181 876.7 378.83 878.005 381.263 880.616C383.696 883.227 384.912 887.054 384.912 892.097V898.238C384.912 903.281 383.696 907.108 381.263 909.719C378.83 912.33 375.181 913.635 370.316 913.635H365.688V939H355.898V876.7ZM370.316 904.735C371.918 904.735 373.105 904.29 373.876 903.4C374.707 902.51 375.122 900.997 375.122 898.861V891.474C375.122 889.338 374.707 887.825 373.876 886.935C373.105 886.045 371.918 885.6 370.316 885.6H365.688V904.735H370.316ZM404.38 939.89C399.574 939.89 395.895 938.525 393.344 935.796C390.793 933.067 389.517 929.21 389.517 924.226V891.474C389.517 886.49 390.793 882.633 393.344 879.904C395.895 877.175 399.574 875.81 404.38 875.81C409.186 875.81 412.865 877.175 415.416 879.904C417.967 882.633 419.243 886.49 419.243 891.474V924.226C419.243 929.21 417.967 933.067 415.416 935.796C412.865 938.525 409.186 939.89 404.38 939.89ZM404.38 930.99C407.762 930.99 409.453 928.943 409.453 924.849V890.851C409.453 886.757 407.762 884.71 404.38 884.71C400.998 884.71 399.307 886.757 399.307 890.851V924.849C399.307 928.943 400.998 930.99 404.38 930.99ZM405.27 862.282H415.95L406.427 872.517H399.04L405.27 862.282ZM453.543 930.1V939H427.644V924.76L423.105 929.655V918.975L427.644 914.08V876.7H437.434V903.578L448.025 892.275V902.955L437.434 914.258V930.1H453.543ZM472.537 876.7H486.51L492.74 921.289H492.918L499.148 876.7H513.121V939H503.865V891.83H503.687L496.567 939H488.379L481.259 891.83H481.081V939H472.537V876.7ZM534.666 939.89C529.92 939.89 526.3 938.555 523.808 935.885C521.316 933.156 520.07 929.269 520.07 924.226V876.7H529.86V924.938C529.86 927.074 530.276 928.617 531.106 929.566C531.996 930.515 533.242 930.99 534.844 930.99C536.446 930.99 537.663 930.515 538.493 929.566C539.383 928.617 539.828 927.074 539.828 924.938V876.7H549.262V924.226C549.262 929.269 548.016 933.156 545.524 935.885C543.032 938.555 539.413 939.89 534.666 939.89ZM554.277 930.278L572.433 885.6H555.167V876.7H582.935V885.422L564.779 930.1H582.935V939H554.277V930.278ZM597.469 912.478L585.632 876.7H596.045L602.72 899.573H602.898L609.573 876.7H619.096L607.259 912.478V939H597.469V912.478ZM635.737 939.89C631.05 939.89 627.46 938.555 624.968 935.885C622.535 933.215 621.319 929.447 621.319 924.582V891.118C621.319 886.253 622.535 882.485 624.968 879.815C627.46 877.145 631.05 875.81 635.737 875.81C640.424 875.81 643.984 877.145 646.417 879.815C648.909 882.485 650.155 886.253 650.155 891.118V897.704H640.899V890.495C640.899 886.638 639.267 884.71 636.004 884.71C632.741 884.71 631.109 886.638 631.109 890.495V925.294C631.109 929.091 632.741 930.99 636.004 930.99C639.267 930.99 640.899 929.091 640.899 925.294V915.771H650.155V924.582C650.155 929.447 648.909 933.215 646.417 935.885C643.984 938.555 640.424 939.89 635.737 939.89ZM654.054 930.278L672.21 885.6H654.944V876.7H682.712V885.422L664.556 930.1H682.712V939H654.054V930.278ZM688.257 876.7H700.539L710.062 913.991H710.24V876.7H718.962V939H708.905L697.157 893.521H696.979V939H688.257V876.7ZM735.228 912.478L723.391 876.7H733.804L740.479 899.573H740.657L747.332 876.7H756.855L745.018 912.478V939H735.228V912.478Z" fill="black"/>
</g>
<defs>
<clipPath id="clip0_8_79">
<rect width="1011" height="948" fill="white"/>
</clipPath>
</defs>
</svg>
