<svg width="1000" height="1000" viewBox="0 0 1000 1000" fill="none" xmlns="http://www.w3.org/2000/svg">
<rect x="760" y="508.063" width="63" height="124" fill="#7A7C7E"/>
<path d="M634 396.064L877.521 509.127L787.521 558.127L634 396.064Z" fill="white"/>
<path d="M143.988 602.245L615 386.064L620.5 391.064L146.489 607.699L143.988 602.245Z" fill="#A4A4A4"/>
<path d="M143.858 602.261L481.371 447.429L483.872 452.882L118.516 620.49L143.858 602.261Z" fill="url(#paint0_linear_23_35)"/>
<path d="M244.244 600.063H230.36V531.423C230.36 520.191 233.948 510.623 241.124 502.719C248.404 494.815 257.764 490.863 269.204 490.863H304.928V600.063H290.264V504.591H269.204C261.612 504.591 255.528 506.827 250.952 511.299C246.48 515.771 244.244 522.895 244.244 532.671V545.931C250.068 539.795 258.388 536.727 269.204 536.727H283.4V550.455H269.204C263.172 550.455 258.232 551.183 254.384 552.639C250.64 554.095 247.26 556.591 244.244 560.127V600.063Z" fill="black"/>
<path d="M324.015 600.253C321.482 600.253 320.215 599.557 320.215 598.163V536.413C320.215 535.4 320.437 534.672 320.88 534.228C321.323 533.785 322.052 533.563 323.065 533.563H339.025C346.625 533.563 352.325 534.925 356.125 537.648C359.988 540.308 361.92 544.552 361.92 550.378C361.92 554.305 360.97 557.63 359.07 560.353C357.17 563.013 354.478 565.04 350.995 566.433V566.813C352.832 567.447 354.352 568.682 355.555 570.518C356.822 572.355 358.152 575.078 359.545 578.688L366.955 597.403C367.145 597.973 367.24 598.417 367.24 598.733C367.24 599.747 365.91 600.253 363.25 600.253H362.3C361.35 600.253 360.527 600.127 359.83 599.873C359.133 599.557 358.69 599.177 358.5 598.733L351.28 580.113C349.887 576.503 348.145 574.065 346.055 572.798C343.965 571.468 340.988 570.803 337.125 570.803H328.575V598.163C328.575 599.557 327.308 600.253 324.775 600.253H324.015ZM341.115 563.583C343.332 563.583 345.358 563.045 347.195 561.968C349.095 560.892 350.583 559.467 351.66 557.693C352.737 555.92 353.275 553.988 353.275 551.898C353.275 548.162 352.135 545.375 349.855 543.538C347.575 541.702 344.44 540.783 340.45 540.783H328.575V563.583H341.115ZM394.823 600.253C392.29 600.253 391.023 599.557 391.023 598.163V540.783H372.783C372.15 540.783 371.675 540.562 371.358 540.118C371.042 539.675 370.883 538.947 370.883 537.933V536.413C370.883 535.4 371.042 534.672 371.358 534.228C371.675 533.785 372.15 533.563 372.783 533.563H417.338C418.035 533.563 418.51 533.785 418.763 534.228C419.08 534.672 419.238 535.4 419.238 536.413V537.933C419.238 538.947 419.08 539.675 418.763 540.118C418.51 540.562 418.035 540.783 417.338 540.783H399.383V598.163C399.383 599.557 398.117 600.253 395.583 600.253H394.823ZM457.054 600.253C454.521 600.253 453.254 599.557 453.254 598.163V535.463C453.254 534.07 454.521 533.373 457.054 533.373H457.814C460.348 533.373 461.614 534.07 461.614 535.463V562.348H496.004V535.463C496.004 534.07 497.271 533.373 499.804 533.373H500.564C503.098 533.373 504.364 534.07 504.364 535.463V598.163C504.364 599.557 503.098 600.253 500.564 600.253H499.804C497.271 600.253 496.004 599.557 496.004 598.163V569.568H461.614V598.163C461.614 599.557 460.348 600.253 457.814 600.253H457.054ZM548.292 600.633C538.792 600.633 531.541 597.752 526.537 591.988C521.534 586.162 519.032 577.707 519.032 566.623C519.032 555.54 521.502 547.18 526.442 541.543C531.446 535.843 538.729 532.993 548.292 532.993C557.856 532.993 565.139 535.843 570.142 541.543C575.146 547.18 577.647 555.54 577.647 566.623C577.647 577.707 575.146 586.162 570.142 591.988C565.139 597.752 557.856 600.633 548.292 600.633ZM548.292 593.413C555.006 593.413 560.136 591.133 563.682 586.573C567.229 582.013 569.002 575.363 569.002 566.623C569.002 557.947 567.229 551.392 563.682 546.958C560.136 542.462 555.006 540.213 548.292 540.213C541.579 540.213 536.449 542.462 532.902 546.958C529.419 551.392 527.677 557.947 527.677 566.623C527.677 575.363 529.419 582.013 532.902 586.573C536.449 591.133 541.579 593.413 548.292 593.413ZM616.924 600.633C608.564 600.633 602.136 598.733 597.639 594.933C593.206 591.07 590.989 585.687 590.989 578.783V535.463C590.989 534.07 592.256 533.373 594.789 533.373H595.549C598.083 533.373 599.349 534.07 599.349 535.463V579.068C599.349 581.855 600.109 584.357 601.629 586.573C603.149 588.727 605.239 590.405 607.899 591.608C610.559 592.812 613.568 593.413 616.924 593.413C620.281 593.413 623.289 592.812 625.949 591.608C628.609 590.342 630.699 588.632 632.219 586.478C633.739 584.262 634.499 581.792 634.499 579.068V535.463C634.499 534.07 635.766 533.373 638.299 533.373H639.059C641.593 533.373 642.859 534.07 642.859 535.463V578.783C642.859 585.687 640.611 591.07 636.114 594.933C631.618 598.733 625.221 600.633 616.924 600.633ZM673.916 600.633C670.116 600.633 666.601 600.19 663.371 599.303C660.141 598.417 657.703 597.34 656.056 596.073C654.853 595.187 654.251 594.395 654.251 593.698C654.251 592.938 654.663 591.893 655.486 590.563C656.373 589.233 657.07 588.568 657.576 588.568C657.83 588.568 658.495 588.885 659.571 589.518C661.535 590.595 663.625 591.513 665.841 592.273C668.121 593.033 670.813 593.413 673.916 593.413C677.59 593.413 680.566 592.4 682.846 590.373C685.19 588.283 686.361 585.56 686.361 582.203C686.361 579.86 685.728 577.928 684.461 576.408C683.195 574.825 681.643 573.59 679.806 572.703C678.033 571.753 675.436 570.613 672.016 569.283C668.343 567.827 665.43 566.497 663.276 565.293C661.123 564.09 659.286 562.317 657.766 559.973C656.246 557.567 655.486 554.432 655.486 550.568C655.486 547.148 656.341 544.108 658.051 541.448C659.825 538.788 662.295 536.73 665.461 535.273C668.691 533.753 672.396 532.993 676.576 532.993C678.73 532.993 681.136 533.31 683.796 533.943C686.456 534.513 688.515 535.305 689.971 536.318C691.238 537.078 691.871 537.902 691.871 538.788C691.871 539.485 691.46 540.498 690.636 541.828C689.876 543.158 689.275 543.823 688.831 543.823C688.515 543.823 688.04 543.665 687.406 543.348C686.836 543.032 686.456 542.81 686.266 542.683C683.1 541.037 679.806 540.213 676.386 540.213C672.713 540.213 669.736 541.163 667.456 543.063C665.24 544.963 664.131 547.592 664.131 550.948C664.131 553.102 664.67 554.843 665.746 556.173C666.886 557.503 668.153 558.517 669.546 559.213C671.003 559.847 673.505 560.86 677.051 562.253C680.851 563.71 683.955 565.135 686.361 566.528C688.768 567.858 690.795 569.822 692.441 572.418C694.151 574.952 695.006 578.213 695.006 582.203C695.006 587.903 693.106 592.4 689.306 595.693C685.506 598.987 680.376 600.633 673.916 600.633ZM710.396 600.063C709.383 600.063 708.655 599.842 708.211 599.398C707.768 598.955 707.546 598.227 707.546 597.213V536.413C707.546 535.4 707.768 534.672 708.211 534.228C708.655 533.785 709.383 533.563 710.396 533.563H743.551C744.248 533.563 744.723 533.785 744.976 534.228C745.293 534.672 745.451 535.4 745.451 536.413V537.933C745.451 538.947 745.293 539.675 744.976 540.118C744.723 540.562 744.248 540.783 743.551 540.783H715.906V562.443H740.701C741.398 562.443 741.873 562.665 742.126 563.108C742.443 563.552 742.601 564.28 742.601 565.293V566.813C742.601 567.827 742.443 568.555 742.126 568.998C741.873 569.442 741.398 569.663 740.701 569.663H715.906V592.843H743.646C744.343 592.843 744.818 593.065 745.071 593.508C745.388 593.952 745.546 594.68 745.546 595.693V597.213C745.546 598.227 745.388 598.955 745.071 599.398C744.818 599.842 744.343 600.063 743.646 600.063H710.396Z" fill="black"/>
<path d="M743 592.84L884 592.84V600.064H743V592.84Z" fill="black"/>
<path d="M520 466C520 463.239 522.239 461 525 461H616V511H525C522.239 511 520 508.761 520 506V466Z" fill="#2968CB"/>
<rect x="629" y="461" width="36" height="50" fill="#2968CB"/>
<path d="M615 386.064L878.5 505.064L788.5 554.064L615 386.064Z" fill="url(#paint1_linear_23_35)"/>
<path d="M760 394.063H823V520.563L760 475.063V394.063Z" fill="url(#paint2_linear_23_35)"/>
<path d="M220.748 632.261C217.844 632.261 215.611 631.601 214.049 630.281C212.509 628.939 211.739 627.069 211.739 624.671V609.623C211.739 609.139 212.179 608.897 213.059 608.897H213.323C214.203 608.897 214.643 609.139 214.643 609.623V624.77C214.643 625.738 214.907 626.607 215.435 627.377C215.963 628.125 216.689 628.708 217.613 629.126C218.537 629.544 219.582 629.753 220.748 629.753C221.914 629.753 222.959 629.544 223.883 629.126C224.807 628.686 225.533 628.092 226.061 627.344C226.589 626.574 226.853 625.716 226.853 624.77V609.623C226.853 609.139 227.293 608.897 228.173 608.897H228.437C229.317 608.897 229.757 609.139 229.757 609.623V624.671C229.757 627.069 228.976 628.939 227.414 630.281C225.852 631.601 223.63 632.261 220.748 632.261ZM240.545 632.261C239.225 632.261 238.004 632.107 236.882 631.799C235.76 631.491 234.913 631.117 234.341 630.677C233.923 630.369 233.714 630.094 233.714 629.852C233.714 629.588 233.857 629.225 234.143 628.763C234.451 628.301 234.693 628.07 234.869 628.07C234.957 628.07 235.188 628.18 235.562 628.4C236.244 628.774 236.97 629.093 237.74 629.357C238.532 629.621 239.467 629.753 240.545 629.753C241.821 629.753 242.855 629.401 243.647 628.697C244.461 627.971 244.868 627.025 244.868 625.859C244.868 625.045 244.648 624.374 244.208 623.846C243.768 623.296 243.229 622.867 242.591 622.559C241.975 622.229 241.073 621.833 239.885 621.371C238.609 620.865 237.597 620.403 236.849 619.985C236.101 619.567 235.463 618.951 234.935 618.137C234.407 617.301 234.143 616.212 234.143 614.87C234.143 613.682 234.44 612.626 235.034 611.702C235.65 610.778 236.508 610.063 237.608 609.557C238.73 609.029 240.017 608.765 241.469 608.765C242.217 608.765 243.053 608.875 243.977 609.095C244.901 609.293 245.616 609.568 246.122 609.92C246.562 610.184 246.782 610.47 246.782 610.778C246.782 611.02 246.639 611.372 246.353 611.834C246.089 612.296 245.88 612.527 245.726 612.527C245.616 612.527 245.451 612.472 245.231 612.362C245.033 612.252 244.901 612.175 244.835 612.131C243.735 611.559 242.591 611.273 241.403 611.273C240.127 611.273 239.093 611.603 238.301 612.263C237.531 612.923 237.146 613.836 237.146 615.002C237.146 615.75 237.333 616.355 237.707 616.817C238.103 617.279 238.543 617.631 239.027 617.873C239.533 618.093 240.402 618.445 241.634 618.929C242.954 619.435 244.032 619.93 244.868 620.414C245.704 620.876 246.408 621.558 246.98 622.46C247.574 623.34 247.871 624.473 247.871 625.859C247.871 627.839 247.211 629.401 245.891 630.545C244.571 631.689 242.789 632.261 240.545 632.261ZM264.173 629.555C264.415 629.555 264.58 629.632 264.668 629.786C264.778 629.94 264.833 630.193 264.833 630.545V631.073C264.833 631.425 264.778 631.678 264.668 631.832C264.58 631.986 264.415 632.063 264.173 632.063H253.184C252.832 632.063 252.579 631.986 252.425 631.832C252.271 631.678 252.194 631.425 252.194 631.073V622.724L249.62 624.275C249.444 624.363 249.334 624.407 249.29 624.407C249.202 624.407 249.125 624.374 249.059 624.308C249.015 624.22 248.993 624.099 248.993 623.945V623.747C248.993 623.329 249.202 622.999 249.62 622.757L252.194 621.206V609.623C252.194 609.139 252.634 608.897 253.514 608.897H253.778C254.658 608.897 255.098 609.139 255.098 609.623V619.424L258.266 617.51C258.442 617.422 258.552 617.378 258.596 617.378C258.684 617.378 258.75 617.422 258.794 617.51C258.86 617.576 258.893 617.686 258.893 617.84V618.038C258.893 618.456 258.684 618.786 258.266 619.028L255.098 620.942V629.555H264.173ZM276.79 632.261C273.886 632.261 271.653 631.601 270.091 630.281C268.551 628.939 267.781 627.069 267.781 624.671V609.623C267.781 609.139 268.221 608.897 269.101 608.897H269.365C270.245 608.897 270.685 609.139 270.685 609.623V624.77C270.685 625.738 270.949 626.607 271.477 627.377C272.005 628.125 272.731 628.708 273.655 629.126C274.579 629.544 275.624 629.753 276.79 629.753C277.956 629.753 279.001 629.544 279.925 629.126C280.849 628.686 281.575 628.092 282.103 627.344C282.631 626.574 282.895 625.716 282.895 624.77V609.623C282.895 609.139 283.335 608.897 284.215 608.897H284.479C285.359 608.897 285.799 609.139 285.799 609.623V624.671C285.799 627.069 285.018 628.939 283.456 630.281C281.894 631.601 279.672 632.261 276.79 632.261ZM306.982 620.15C307.334 620.15 307.587 620.227 307.741 620.381C307.895 620.535 307.972 620.788 307.972 621.14V629.885C307.972 630.743 307.279 631.359 305.893 631.733C304.529 632.085 302.769 632.261 300.613 632.261C297.291 632.261 294.761 631.304 293.023 629.39C291.285 627.476 290.416 624.583 290.416 620.711C290.416 612.747 293.98 608.765 301.108 608.765C302.142 608.765 303.143 608.875 304.111 609.095C305.101 609.293 305.893 609.557 306.487 609.887C307.103 610.217 307.411 610.525 307.411 610.811C307.411 611.119 307.268 611.515 306.982 611.999C306.718 612.483 306.487 612.725 306.289 612.725C306.223 612.725 305.937 612.593 305.431 612.329C304.947 612.043 304.342 611.801 303.616 611.603C302.912 611.383 302.098 611.273 301.174 611.273C298.38 611.273 296.389 612.043 295.201 613.583C294.013 615.123 293.419 617.4 293.419 620.414C293.419 623.274 293.969 625.551 295.069 627.245C296.169 628.917 298.083 629.753 300.811 629.753C301.625 629.753 302.417 629.72 303.187 629.654C303.979 629.566 304.606 629.456 305.068 629.324V622.658H301.207C300.987 622.658 300.822 622.581 300.712 622.427C300.602 622.273 300.547 622.02 300.547 621.668V621.14C300.547 620.788 300.602 620.535 300.712 620.381C300.822 620.227 300.987 620.15 301.207 620.15H306.982ZM315.228 632.129C314.348 632.129 313.908 631.887 313.908 631.403V609.623C313.908 609.139 314.348 608.897 315.228 608.897H315.492C316.372 608.897 316.812 609.139 316.812 609.623V631.403C316.812 631.887 316.372 632.129 315.492 632.129H315.228ZM332.501 632.129C331.621 632.129 331.181 631.887 331.181 631.403V609.953C331.181 609.601 331.258 609.348 331.412 609.194C331.566 609.04 331.819 608.963 332.171 608.963H337.715C340.355 608.963 342.335 609.436 343.655 610.382C344.997 611.306 345.668 612.78 345.668 614.804C345.668 616.168 345.338 617.323 344.678 618.269C344.018 619.193 343.083 619.897 341.873 620.381V620.513C342.511 620.733 343.039 621.162 343.457 621.8C343.897 622.438 344.359 623.384 344.843 624.638L347.417 631.139C347.483 631.337 347.516 631.491 347.516 631.601C347.516 631.953 347.054 632.129 346.13 632.129H345.8C345.47 632.129 345.184 632.085 344.942 631.997C344.7 631.887 344.546 631.755 344.48 631.601L341.972 625.133C341.488 623.879 340.883 623.032 340.157 622.592C339.431 622.13 338.397 621.899 337.055 621.899H334.085V631.403C334.085 631.887 333.645 632.129 332.765 632.129H332.501ZM338.441 619.391C339.211 619.391 339.915 619.204 340.553 618.83C341.213 618.456 341.73 617.961 342.104 617.345C342.478 616.729 342.665 616.058 342.665 615.332C342.665 614.034 342.269 613.066 341.477 612.428C340.685 611.79 339.596 611.471 338.21 611.471H334.085V619.391H338.441ZM352.346 632.063C351.994 632.063 351.741 631.986 351.587 631.832C351.433 631.678 351.356 631.425 351.356 631.073V609.953C351.356 609.601 351.433 609.348 351.587 609.194C351.741 609.04 351.994 608.963 352.346 608.963H363.863C364.105 608.963 364.27 609.04 364.358 609.194C364.468 609.348 364.523 609.601 364.523 609.953V610.481C364.523 610.833 364.468 611.086 364.358 611.24C364.27 611.394 364.105 611.471 363.863 611.471H354.26V618.995H362.873C363.115 618.995 363.28 619.072 363.368 619.226C363.478 619.38 363.533 619.633 363.533 619.985V620.513C363.533 620.865 363.478 621.118 363.368 621.272C363.28 621.426 363.115 621.503 362.873 621.503H354.26V629.555H363.896C364.138 629.555 364.303 629.632 364.391 629.786C364.501 629.94 364.556 630.193 364.556 630.545V631.073C364.556 631.425 364.501 631.678 364.391 631.832C364.303 631.986 364.138 632.063 363.896 632.063H352.346ZM379.436 625.628C379.106 625.628 378.864 625.485 378.71 625.199L372.836 614.969C372.638 614.639 372.374 614.144 372.044 613.484L371.912 613.517C371.956 613.913 371.978 614.518 371.978 615.332V631.403C371.978 631.887 371.538 632.129 370.658 632.129H370.427C369.547 632.129 369.107 631.887 369.107 631.403V609.623C369.107 609.139 369.547 608.897 370.427 608.897H371.615C372.319 608.897 372.781 609.095 373.001 609.491L379.238 620.315C379.634 620.997 379.92 621.69 380.096 622.394C380.272 621.844 380.613 621.118 381.119 620.216L387.191 609.491C387.411 609.095 387.873 608.897 388.577 608.897H389.666C390.546 608.897 390.986 609.139 390.986 609.623V631.403C390.986 631.887 390.546 632.129 389.666 632.129H389.435C388.555 632.129 388.115 631.887 388.115 631.403V615.53C388.115 614.716 388.137 614.111 388.181 613.715L388.049 613.682C387.719 614.342 387.455 614.837 387.257 615.167L381.482 625.199C381.328 625.485 381.086 625.628 380.756 625.628H379.436ZM405.993 632.261C402.693 632.261 400.174 631.26 398.436 629.258C396.698 627.234 395.829 624.297 395.829 620.447C395.829 616.597 396.687 613.693 398.403 611.735C400.141 609.755 402.671 608.765 405.993 608.765C409.315 608.765 411.845 609.755 413.583 611.735C415.321 613.693 416.19 616.597 416.19 620.447C416.19 624.297 415.321 627.234 413.583 629.258C411.845 631.26 409.315 632.261 405.993 632.261ZM405.993 629.753C408.325 629.753 410.107 628.961 411.339 627.377C412.571 625.793 413.187 623.483 413.187 620.447C413.187 617.433 412.571 615.156 411.339 613.616C410.107 612.054 408.325 611.273 405.993 611.273C403.661 611.273 401.879 612.054 400.647 613.616C399.437 615.156 398.832 617.433 398.832 620.447C398.832 623.483 399.437 625.793 400.647 627.377C401.879 628.961 403.661 629.753 405.993 629.753ZM422.376 632.129C421.496 632.129 421.056 631.887 421.056 631.403V609.623C421.056 609.139 421.496 608.897 422.376 608.897H423.069C423.421 608.897 423.696 608.941 423.894 609.029C424.114 609.117 424.301 609.282 424.455 609.524L434.817 625.166C435.191 625.716 435.554 626.376 435.906 627.146L436.038 627.113C435.994 626.607 435.972 625.859 435.972 624.869V609.623C435.972 609.139 436.412 608.897 437.292 608.897H437.523C438.403 608.897 438.843 609.139 438.843 609.623V631.403C438.843 631.887 438.403 632.129 437.523 632.129H436.863C436.291 632.129 435.906 631.975 435.708 631.667L425.082 615.629C424.708 615.079 424.345 614.419 423.993 613.649L423.861 613.682C423.905 614.188 423.927 614.936 423.927 615.926V631.403C423.927 631.887 423.487 632.129 422.607 632.129H422.376ZM450.781 632.129C449.901 632.129 449.461 631.887 449.461 631.403V611.471H443.125C442.905 611.471 442.74 611.394 442.63 611.24C442.52 611.086 442.465 610.833 442.465 610.481V609.953C442.465 609.601 442.52 609.348 442.63 609.194C442.74 609.04 442.905 608.963 443.125 608.963H458.602C458.844 608.963 459.009 609.04 459.097 609.194C459.207 609.348 459.262 609.601 459.262 609.953V610.481C459.262 610.833 459.207 611.086 459.097 611.24C459.009 611.394 458.844 611.471 458.602 611.471H452.365V631.403C452.365 631.887 451.925 632.129 451.045 632.129H450.781ZM471.316 632.261C468.016 632.261 465.497 631.26 463.759 629.258C462.021 627.234 461.152 624.297 461.152 620.447C461.152 616.597 462.01 613.693 463.726 611.735C465.464 609.755 467.994 608.765 471.316 608.765C474.638 608.765 477.168 609.755 478.906 611.735C480.644 613.693 481.513 616.597 481.513 620.447C481.513 624.297 480.644 627.234 478.906 629.258C477.168 631.26 474.638 632.261 471.316 632.261ZM471.316 629.753C473.648 629.753 475.43 628.961 476.662 627.377C477.894 625.793 478.51 623.483 478.51 620.447C478.51 617.433 477.894 615.156 476.662 613.616C475.43 612.054 473.648 611.273 471.316 611.273C468.984 611.273 467.202 612.054 465.97 613.616C464.76 615.156 464.155 617.433 464.155 620.447C464.155 623.483 464.76 625.793 465.97 627.377C467.202 628.961 468.984 629.753 471.316 629.753ZM491.106 632.129C490.314 632.129 489.874 631.953 489.786 631.601L484.143 609.92C484.077 609.656 484.044 609.502 484.044 609.458C484.044 609.084 484.517 608.897 485.463 608.897H485.793C486.585 608.897 487.025 609.073 487.113 609.425L490.974 624.473C491.414 626.189 491.689 627.608 491.799 628.73H491.931L492.69 625.562L496.683 609.458C496.771 609.084 497.2 608.897 497.97 608.897H498.498C499.268 608.897 499.697 609.084 499.785 609.458L503.58 624.473C503.756 625.155 503.921 625.903 504.075 626.717C504.229 627.531 504.328 628.202 504.372 628.73H504.504C504.856 627.146 505.098 626.101 505.23 625.595L509.223 609.425C509.311 609.073 509.751 608.897 510.543 608.897H510.741C511.687 608.897 512.16 609.084 512.16 609.458L512.061 609.92L506.352 631.601C506.264 631.953 505.824 632.129 505.032 632.129H503.679C502.887 632.129 502.447 631.953 502.359 631.601L499.224 619.886C498.982 618.984 498.751 617.961 498.531 616.817C498.333 615.673 498.201 614.694 498.135 613.88H498.003C497.937 614.694 497.827 615.574 497.673 616.52C497.519 617.444 497.365 618.192 497.211 618.764L493.779 631.601C493.691 631.953 493.251 632.129 492.459 632.129H491.106ZM524.845 632.261C521.545 632.261 519.026 631.26 517.288 629.258C515.55 627.234 514.681 624.297 514.681 620.447C514.681 616.597 515.539 613.693 517.255 611.735C518.993 609.755 521.523 608.765 524.845 608.765C528.167 608.765 530.697 609.755 532.435 611.735C534.173 613.693 535.042 616.597 535.042 620.447C535.042 624.297 534.173 627.234 532.435 629.258C530.697 631.26 528.167 632.261 524.845 632.261ZM524.845 629.753C527.177 629.753 528.959 628.961 530.191 627.377C531.423 625.793 532.039 623.483 532.039 620.447C532.039 617.433 531.423 615.156 530.191 613.616C528.959 612.054 527.177 611.273 524.845 611.273C522.513 611.273 520.731 612.054 519.499 613.616C518.289 615.156 517.684 617.433 517.684 620.447C517.684 623.483 518.289 625.793 519.499 627.377C520.731 628.961 522.513 629.753 524.845 629.753ZM549.056 632.063C548.704 632.063 548.451 631.986 548.297 631.832C548.143 631.678 548.066 631.425 548.066 631.073V609.953C548.066 609.601 548.143 609.348 548.297 609.194C548.451 609.04 548.704 608.963 549.056 608.963H554.963C557.361 608.963 559.187 609.491 560.441 610.547C561.717 611.603 562.355 613.022 562.355 614.804C562.355 615.904 561.992 616.949 561.266 617.939C560.54 618.929 559.693 619.556 558.725 619.82V619.952C560.023 620.326 561.112 620.975 561.992 621.899C562.894 622.823 563.345 624 563.345 625.43C563.345 629.852 560.474 632.063 554.732 632.063H549.056ZM554.798 618.929C556.118 618.929 557.207 618.555 558.065 617.807C558.923 617.059 559.352 616.146 559.352 615.068C559.352 613.836 558.978 612.934 558.23 612.362C557.482 611.768 556.294 611.471 554.666 611.471H550.97V618.929H554.798ZM555.788 629.555C557.24 629.555 558.362 629.181 559.154 628.433C559.946 627.663 560.342 626.618 560.342 625.298C560.342 624.066 559.902 623.12 559.022 622.46C558.164 621.778 556.899 621.437 555.227 621.437H550.97V629.555H555.788ZM576.175 632.261C573.271 632.261 571.038 631.601 569.476 630.281C567.936 628.939 567.166 627.069 567.166 624.671V609.623C567.166 609.139 567.606 608.897 568.486 608.897H568.75C569.63 608.897 570.07 609.139 570.07 609.623V624.77C570.07 625.738 570.334 626.607 570.862 627.377C571.39 628.125 572.116 628.708 573.04 629.126C573.964 629.544 575.009 629.753 576.175 629.753C577.341 629.753 578.386 629.544 579.31 629.126C580.234 628.686 580.96 628.092 581.488 627.344C582.016 626.574 582.28 625.716 582.28 624.77V609.623C582.28 609.139 582.72 608.897 583.6 608.897H583.864C584.744 608.897 585.184 609.139 585.184 609.623V624.671C585.184 627.069 584.403 628.939 582.841 630.281C581.279 631.601 579.057 632.261 576.175 632.261ZM592.111 632.063C591.759 632.063 591.506 631.986 591.352 631.832C591.198 631.678 591.121 631.425 591.121 631.073V609.953C591.121 609.601 591.198 609.348 591.352 609.194C591.506 609.04 591.759 608.963 592.111 608.963H598.777C601.857 608.963 604.321 609.887 606.169 611.735C608.039 613.561 608.974 616.487 608.974 620.513C608.974 624.561 608.039 627.498 606.169 629.324C604.321 631.15 601.857 632.063 598.777 632.063H592.111ZM598.546 629.555C600.768 629.555 602.561 628.829 603.925 627.377C605.289 625.925 605.971 623.637 605.971 620.513C605.971 617.411 605.289 615.134 603.925 613.682C602.561 612.208 600.768 611.471 598.546 611.471H594.025V629.555H598.546ZM622.91 632.261C619.61 632.261 617.091 631.26 615.353 629.258C613.615 627.234 612.746 624.297 612.746 620.447C612.746 616.597 613.604 613.693 615.32 611.735C617.058 609.755 619.588 608.765 622.91 608.765C626.232 608.765 628.762 609.755 630.5 611.735C632.238 613.693 633.107 616.597 633.107 620.447C633.107 624.297 632.238 627.234 630.5 629.258C628.762 631.26 626.232 632.261 622.91 632.261ZM622.91 629.753C625.242 629.753 627.024 628.961 628.256 627.377C629.488 625.793 630.104 623.483 630.104 620.447C630.104 617.433 629.488 615.156 628.256 613.616C627.024 612.054 625.242 611.273 622.91 611.273C620.578 611.273 618.796 612.054 617.564 613.616C616.354 615.156 615.749 617.433 615.749 620.447C615.749 623.483 616.354 625.793 617.564 627.377C618.796 628.961 620.578 629.753 622.91 629.753ZM642.7 632.129C641.908 632.129 641.468 631.953 641.38 631.601L635.737 609.92C635.671 609.656 635.638 609.502 635.638 609.458C635.638 609.084 636.111 608.897 637.057 608.897H637.387C638.179 608.897 638.619 609.073 638.707 609.425L642.568 624.473C643.008 626.189 643.283 627.608 643.393 628.73H643.525L644.284 625.562L648.277 609.458C648.365 609.084 648.794 608.897 649.564 608.897H650.092C650.862 608.897 651.291 609.084 651.379 609.458L655.174 624.473C655.35 625.155 655.515 625.903 655.669 626.717C655.823 627.531 655.922 628.202 655.966 628.73H656.098C656.45 627.146 656.692 626.101 656.824 625.595L660.817 609.425C660.905 609.073 661.345 608.897 662.137 608.897H662.335C663.281 608.897 663.754 609.084 663.754 609.458L663.655 609.92L657.946 631.601C657.858 631.953 657.418 632.129 656.626 632.129H655.273C654.481 632.129 654.041 631.953 653.953 631.601L650.818 619.886C650.576 618.984 650.345 617.961 650.125 616.817C649.927 615.673 649.795 614.694 649.729 613.88H649.597C649.531 614.694 649.421 615.574 649.267 616.52C649.113 617.444 648.959 618.192 648.805 618.764L645.373 631.601C645.285 631.953 644.845 632.129 644.053 632.129H642.7ZM668.907 632.063C668.555 632.063 668.302 631.986 668.148 631.832C667.994 631.678 667.917 631.425 667.917 631.073V609.623C667.917 609.139 668.357 608.897 669.237 608.897H669.501C670.381 608.897 670.821 609.139 670.821 609.623V629.555H679.896C680.138 629.555 680.303 629.632 680.391 629.786C680.501 629.94 680.556 630.193 680.556 630.545V631.073C680.556 631.425 680.501 631.678 680.391 631.832C680.303 631.986 680.138 632.063 679.896 632.063H668.907ZM682.515 632.129C681.569 632.129 681.096 631.942 681.096 631.568C681.096 631.458 681.129 631.304 681.195 631.106L689.016 609.425C689.148 609.073 689.588 608.897 690.336 608.897H691.293C692.085 608.897 692.525 609.073 692.613 609.425L700.434 631.139C700.5 631.293 700.533 631.436 700.533 631.568C700.533 631.942 700.06 632.129 699.114 632.129H698.85C698.08 632.129 697.64 631.953 697.53 631.601L695.583 626.189H685.881L684 631.601C683.89 631.953 683.45 632.129 682.68 632.129H682.515ZM694.692 623.681L691.227 613.847C691.117 613.495 690.985 612.857 690.831 611.933H690.765C690.589 612.813 690.424 613.451 690.27 613.847L686.805 623.681H694.692ZM705.228 632.129C704.348 632.129 703.908 631.887 703.908 631.403V609.623C703.908 609.139 704.348 608.897 705.228 608.897H705.921C706.273 608.897 706.548 608.941 706.746 609.029C706.966 609.117 707.153 609.282 707.307 609.524L717.669 625.166C718.043 625.716 718.406 626.376 718.758 627.146L718.89 627.113C718.846 626.607 718.824 625.859 718.824 624.869V609.623C718.824 609.139 719.264 608.897 720.144 608.897H720.375C721.255 608.897 721.695 609.139 721.695 609.623V631.403C721.695 631.887 721.255 632.129 720.375 632.129H719.715C719.143 632.129 718.758 631.975 718.56 631.667L707.934 615.629C707.56 615.079 707.197 614.419 706.845 613.649L706.713 613.682C706.757 614.188 706.779 614.936 706.779 615.926V631.403C706.779 631.887 706.339 632.129 705.459 632.129H705.228ZM728.881 632.063C728.529 632.063 728.276 631.986 728.122 631.832C727.968 631.678 727.891 631.425 727.891 631.073V609.953C727.891 609.601 727.968 609.348 728.122 609.194C728.276 609.04 728.529 608.963 728.881 608.963H740.398C740.64 608.963 740.805 609.04 740.893 609.194C741.003 609.348 741.058 609.601 741.058 609.953V610.481C741.058 610.833 741.003 611.086 740.893 611.24C740.805 611.394 740.64 611.471 740.398 611.471H730.795V618.995H739.408C739.65 618.995 739.815 619.072 739.903 619.226C740.013 619.38 740.068 619.633 740.068 619.985V620.513C740.068 620.865 740.013 621.118 739.903 621.272C739.815 621.426 739.65 621.503 739.408 621.503H730.795V629.555H740.431C740.673 629.555 740.838 629.632 740.926 629.786C741.036 629.94 741.091 630.193 741.091 630.545V631.073C741.091 631.425 741.036 631.678 740.926 631.832C740.838 631.986 740.673 632.063 740.431 632.063H728.881Z" fill="black"/>
<defs>
<linearGradient id="paint0_linear_23_35" x1="129.5" y1="613" x2="492" y2="447" gradientUnits="userSpaceOnUse">
<stop offset="0.417202" stop-color="#525253"/>
<stop offset="1" stop-color="#525253" stop-opacity="0"/>
</linearGradient>
<linearGradient id="paint1_linear_23_35" x1="669.5" y1="421" x2="856.375" y2="542.929" gradientUnits="userSpaceOnUse">
<stop offset="0.388004" stop-color="#A4A4A4"/>
<stop offset="1" stop-color="#131414"/>
</linearGradient>
<linearGradient id="paint2_linear_23_35" x1="791.5" y1="394.063" x2="791.5" y2="520.563" gradientUnits="userSpaceOnUse">
<stop stop-color="#7A7C7E"/>
<stop offset="1" stop-color="#2B2E33"/>
</linearGradient>
</defs>
</svg>
