<svg width="1483" height="1000" viewBox="0 0 1483 1000" fill="none" xmlns="http://www.w3.org/2000/svg">
<path d="M652.279 323L604.224 158.575H603.236C604.059 175.87 604.471 186.823 604.471 191.435V323H592.859V142.392H610.771L651.291 280.504C654.914 292.693 657.262 303.07 658.332 311.635H659.321C660.144 305.54 662.697 295.246 666.98 280.751L707.129 142.392H725.659V323H713.552V192.423C713.552 187.317 713.964 176.117 714.788 158.822H713.8L665.991 323H652.279ZM839.632 142.392V264.321C839.632 305.087 825.055 325.471 795.901 325.471C781.324 325.471 770.206 320.2 762.546 309.658C754.887 299.117 751.058 284.004 751.058 264.321V142.392H763.288V265.803C763.288 281.451 766.088 293.393 771.688 301.628C777.371 309.782 785.442 313.858 795.901 313.858C806.278 313.858 814.143 309.782 819.496 301.628C824.849 293.393 827.526 281.286 827.526 265.309V142.392H839.632ZM934.334 275.686C934.334 290.51 930.217 302.534 921.981 311.758C913.745 320.9 903.286 325.471 890.603 325.471C876.191 325.471 864.619 323.371 855.89 319.17V306.076C860.172 308.464 865.484 310.358 871.826 311.758C878.167 313.158 884.426 313.858 890.603 313.858C899.827 313.858 907.404 310.358 913.333 303.358C919.263 296.358 922.228 287.463 922.228 276.674C922.228 266.709 920.128 258.803 915.928 252.956C911.728 247.108 903.698 241.261 891.838 235.414C882.532 230.719 875.573 226.19 870.961 221.825C866.349 217.377 862.931 212.23 860.708 206.383C858.484 200.535 857.372 193.535 857.372 185.382C857.372 176.487 859.184 168.581 862.808 161.663C866.431 154.745 871.496 149.392 878.002 145.604C884.509 141.733 891.632 139.797 899.374 139.797C906.374 139.797 912.716 140.58 918.398 142.145C924.163 143.709 928.693 145.398 931.987 147.209L927.293 158.822C918.151 154.127 908.845 151.78 899.374 151.78C890.479 151.78 883.232 154.827 877.632 160.922C872.114 166.934 869.355 174.923 869.355 184.888C869.355 195.018 871.373 202.883 875.408 208.483C879.444 214.083 887.35 219.889 899.127 225.901C911.316 231.831 920.21 238.79 925.811 246.779C931.493 254.685 934.334 264.321 934.334 275.686ZM952.445 323V142.392H964.551V323H952.445ZM1042.45 151.163C1028.86 151.163 1018.03 158.369 1009.96 172.781C1001.97 187.111 997.98 207 997.98 232.449C997.98 249.002 999.833 263.415 1003.54 275.686C1007.24 287.957 1012.56 297.387 1019.47 303.976C1026.39 310.564 1034.42 313.858 1043.56 313.858C1052.95 313.858 1061.02 312.17 1067.78 308.793V319.912C1061.35 323.618 1052.91 325.471 1042.45 325.471C1031 325.471 1020.96 321.765 1012.31 314.353C1003.74 306.94 997.115 296.234 992.421 282.233C987.726 268.15 985.379 251.473 985.379 232.202C985.379 203.377 990.485 180.729 1000.7 164.257C1010.99 147.786 1024.99 139.55 1042.7 139.55C1053.74 139.55 1063.37 142.103 1071.61 147.209L1066.05 157.833C1059.13 153.386 1051.26 151.163 1042.45 151.163Z" fill="black"/>
<path d="M612.186 498.955H651.717V584.441C637.964 589.794 623.675 592.471 608.851 592.471C589.167 592.471 573.89 584.235 563.019 567.764C552.148 551.292 546.712 528.438 546.712 499.202C546.712 469.883 552.313 447.152 563.513 431.01C574.796 414.868 590.609 406.797 610.951 406.797C624.622 406.797 637.511 410.668 649.617 418.41L643.811 429.034C632.446 421.786 621.492 418.163 610.951 418.163C594.068 418.163 581.261 425.122 572.531 439.04C563.884 452.876 559.56 473.012 559.56 499.449C559.56 525.309 563.925 545.363 572.655 559.61C581.467 573.776 593.903 580.858 609.962 580.858C621.492 580.858 631.334 579.335 639.487 576.288V510.567H612.186V498.955ZM685.146 511.061V590H673.039V409.392H697.746C715.371 409.392 728.26 413.551 736.413 421.869C744.566 430.187 748.643 442.623 748.643 459.176C748.643 471.694 746.419 481.989 741.972 490.06C737.525 498.131 730.072 504.184 719.612 508.22L755.437 590H741.849L708.123 511.061H685.146ZM685.146 499.943H702.07C713.024 499.943 721.465 496.566 727.395 489.813C733.325 483.06 736.289 473.012 736.289 459.67C736.289 446.082 733.242 436.281 727.148 430.269C721.136 424.257 711.624 421.251 698.611 421.251H685.146V499.943ZM865.952 499.449C865.952 529.344 861.464 552.322 852.487 568.381C843.592 584.441 830.703 592.471 813.82 592.471C796.772 592.471 783.842 584.4 775.03 568.258C766.218 552.034 761.812 529.015 761.812 499.202C761.812 468.071 766.177 444.887 774.907 429.651C783.636 414.415 796.731 406.797 814.191 406.797C830.992 406.797 843.798 414.827 852.61 430.887C861.505 446.864 865.952 469.718 865.952 499.449ZM774.412 499.449C774.412 526.297 777.748 546.598 784.419 560.352C791.172 574.023 800.972 580.858 813.82 580.858C826.75 580.858 836.551 574.064 843.221 560.475C849.975 546.886 853.351 526.544 853.351 499.449C853.351 472.683 850.057 452.505 843.469 438.917C836.88 425.245 827.121 418.41 814.191 418.41C800.931 418.41 790.966 425.328 784.295 439.164C777.707 452.917 774.412 473.012 774.412 499.449ZM973.872 409.392V531.321C973.872 572.087 959.295 592.471 930.141 592.471C915.564 592.471 904.445 587.2 896.786 576.658C889.127 566.117 885.298 551.004 885.298 531.321V409.392H897.528V532.803C897.528 548.451 900.328 560.393 905.928 568.628C911.611 576.782 919.681 580.858 930.141 580.858C940.518 580.858 948.383 576.782 953.736 568.628C959.089 560.393 961.766 548.286 961.766 532.309V409.392H973.872ZM1074.87 461.276C1074.87 479.889 1070.59 493.56 1062.03 502.29C1053.54 511.02 1040.94 515.385 1024.23 515.385H1011.38V590H999.271V409.392H1023.98C1041.6 409.392 1054.49 413.551 1062.64 421.869C1070.8 430.187 1074.87 443.323 1074.87 461.276ZM1011.38 504.267H1023.48C1037.65 504.267 1047.7 500.931 1053.63 494.26C1059.56 487.589 1062.52 476.595 1062.52 461.276C1062.52 446.699 1059.43 436.281 1053.26 430.022C1047.16 423.681 1037.69 420.51 1024.84 420.51H1011.38V504.267Z" fill="black"/>
<path d="M164.298 653.261C152.88 674.418 147.539 687.446 141.501 713.422C138.963 728.115 138.482 737.147 138.393 753.876C142.094 770.838 144.52 780.074 157.045 790.18C156.877 773.447 156.918 763.534 157.045 745.578C156.526 732.311 157.406 727.904 168.443 719.646C185.023 719.646 195.36 718.428 216.11 728.981C215.504 733.074 214.767 735.505 211.965 740.391C208.052 759.834 208.251 770.737 211.965 790.18C219.71 801.419 224.586 806.557 236.834 807.814C231.539 791.573 231.837 782.141 232.689 765.286C238.151 723.294 243.047 703.297 252.377 668.82L356 655.335L330.094 724.832C342.65 775.982 338.993 800.17 294.863 827.522C300.088 828.642 303.039 829.905 308.334 834.783C316.361 841.336 317.172 845.89 316.623 854.491C317.346 869 317.679 877.425 316.623 899.093C320.66 931.361 323.118 949.139 328.022 980C298.894 945.844 287.075 921.816 276.211 867.975C236.998 871.746 159.514 866.406 157.073 862.106C156.408 868.197 142.637 940.443 132.175 975.851C135.274 922.816 136.81 893.371 139.429 841.006C146.394 831.656 155.774 827.313 176.733 820.261C164.028 812.127 157.054 807.128 145.646 795.366C137.953 786.617 134.946 780.971 131.139 769.435C130.691 745.348 131.139 738.317 135.284 710.311C139.428 682.304 145.843 671.013 149.791 646L164.298 653.261Z" fill="black" stroke="black" stroke-linejoin="round"/>
<path d="M356.365 648.926C400.573 621.397 424.877 611.594 435.258 556.632C434.222 547.206 431.631 543.567 425.915 537.965C433.901 535.045 437.216 532.813 440.448 527.595C446.534 522.012 446.656 518.483 445.638 512.04C440.785 504.414 438.305 499.879 435.258 490.262C452.26 486.535 455.397 478.532 453.943 469.522C452.489 459.312 447.714 453.967 445.638 445.671C443.562 437.374 460.171 442.559 463.285 437.374C466.399 432.189 463.285 429.078 463.285 429.078C462.56 421.806 460.878 417.021 453.943 406.264C462.947 404.585 467.957 401.982 476.78 394.857C476.171 381.441 473.045 375.653 463.285 367.894C467.995 362.368 470.868 359.57 479.894 359.598C485.108 357.441 487.486 356.008 484.046 350.265C481.611 338.136 478.058 332.569 470.552 323.302C475.282 317.452 479.332 312.533 489.237 312.932C491.209 305.489 491.84 301.238 490.275 293.229C486.066 285.709 484.699 281.169 484.046 272.488C499.376 270.593 503.341 267.718 498.579 257.97C498.551 246.978 495.903 241.526 490.275 232.045C497.718 230.421 501.586 228.891 505.846 220.637C506.595 197.344 504.684 184.42 498.579 161.527C491.484 138.3 485.321 126.739 473.666 106.565C460.988 90.8883 452.676 84.2646 437.334 73.3806C416.822 59.2887 405.566 54.1691 385.431 44.3441C353.971 33.1435 336.224 28.7123 304.463 23.6037C269.963 18.895 252.56 18.4186 217.266 19.4556C183.01 24.6407 173.465 26.3932 153.945 33.9739C127.212 50.9822 120.727 60.9364 106.194 85.8249C96.2956 101.909 91.8715 111.08 90.6233 128.343C91.6867 136.684 94.1005 140.145 98.9278 145.972C92.0902 155.114 87.1349 158.164 77.1286 161.527C85.8997 173.716 88.9319 180.742 90.6233 193.675C85.5364 201.126 81.8914 204.323 72.9764 207.156C78.264 218.531 78.1883 225.1 77.1286 237.23C74.1931 242.944 69.8314 243.711 63.6339 247.6C70.439 259.843 72.7562 267.042 72.9764 280.784C66.9371 287.727 62.2524 287.99 54.2914 291.155C60.0785 305.012 61.9786 312.557 61.5578 325.376C55.7323 334.975 51.7252 338.732 43.9108 344.043C53.4602 354.781 56.2682 361.303 55.3294 374.116C46.1225 385.318 40.1443 389.946 28.34 395.894C37.4667 403.739 42.2678 408.343 49.1011 417.671C41.0224 424.208 41.8347 423.893 33.5303 430.115L24.1878 436.337C25.195 450.081 28.4095 457.301 37.6825 469.522C32.3971 475.138 28.9299 476.807 22.1117 477.818C16.3725 500.585 16.8925 511.978 22.1117 530.706C36.5089 561.093 48.2899 570.693 66.7481 592.927C99.298 620.339 117.21 628.467 150.83 641.667C192.622 654.472 212.548 656.121 253.598 662.408C292.006 664.482 320.033 661.37 356.365 648.926Z" stroke="black" stroke-width="15" stroke-linejoin="round"/>
<path d="M393.827 507.939C396.331 503.604 402.16 502.621 405.997 505.836C424.834 521.621 434.362 527.805 443.421 528.47L432.667 537.712C430.78 539.333 429.755 541.739 429.893 544.223L430.712 558.951C414.587 557.236 402.173 546.139 386.329 532.271C383.804 530.061 383.182 526.37 384.86 523.464L393.827 507.939Z" fill="black"/>
<path d="M401.858 462.182C412.636 459.852 419.951 469.927 448.341 481.483L437.947 506.515C422.84 496.862 413.022 492.605 396.771 488.499C393.659 487.713 391.424 484.961 391.714 481.764C392.338 474.892 394.489 463.775 401.858 462.182Z" fill="black"/>
<path d="M405.162 429.269C407.516 423.601 415.423 422.509 420.866 425.345C427.591 428.85 438.483 432.2 458.861 436.665L457.385 440.323C456.742 441.917 455.602 443.261 454.136 444.157L451.924 445.507C448.96 447.317 447.933 451.132 449.587 454.185C450.648 456.144 450.637 458.509 449.557 460.458L447.263 464.595C430.908 454.883 420.81 450.593 406.648 446.582C402.547 445.421 400.306 440.965 401.941 437.028L405.162 429.269Z" fill="black"/>
<path d="M416.976 377.499C418.962 373.623 423.536 372.299 427.271 374.54C433.491 378.274 445.203 384.791 470.869 396.313L469.071 399.913C468.275 401.508 466.968 402.791 465.359 403.559L462.999 404.685C459.708 406.255 458.304 410.188 459.856 413.487C460.847 415.596 460.659 418.07 459.359 420.004L456.688 423.978C439.729 413.341 429.094 408.066 413.26 401.16C409.542 399.538 407.943 395.121 409.793 391.511L416.976 377.499Z" fill="black"/>
<path d="M426.148 334.856C428.583 330.03 434.983 328.996 439.225 332.345C450.381 341.152 461.977 345.735 482.622 351.129L480.419 355.601C479.683 357.097 478.497 358.325 477.028 359.114L473.989 360.747C470.543 362.599 469.08 366.774 470.616 370.372C471.605 372.686 471.376 375.341 470.006 377.453L467.022 382.051C452.396 369.883 441.781 364.175 423.586 358.46C419.391 357.143 417.299 352.399 419.279 348.473L426.148 334.856Z" fill="black"/>
<path d="M445.81 283.228C464.101 289.715 489.247 308.11 489.247 308.11L486.822 312.429C486.074 313.762 484.96 314.852 483.611 315.571L480.511 317.225C477.32 318.927 475.781 322.65 476.839 326.109C477.524 328.352 477.131 330.786 475.773 332.698L472.613 337.148L432.51 314.176C430.433 312.986 429.105 310.831 429.153 308.438C429.337 299.44 431.278 278.074 445.81 283.228Z" fill="black"/>
<path d="M443.427 240.827C445.671 237.24 450.334 236.023 454.032 238.079C476.646 250.655 484.012 256.288 498.657 266.505L496.744 269.642C495.752 271.268 494.212 272.487 492.402 273.079L490.249 273.784C486.722 274.938 484.931 278.856 486.365 282.279C487.275 284.452 486.908 286.95 485.412 288.77L482.531 292.274C466.992 280.669 457.45 273.667 438.199 263.705C434.523 261.802 433.201 257.168 435.396 253.659L443.427 240.827Z" fill="black"/>
<path d="M455.644 197.574C457.988 193.828 462.924 192.692 466.669 195.036L507.821 220.788L506.152 223.526C505.208 225.075 503.732 226.228 501.999 226.768L500.169 227.338C496.906 228.354 495.247 231.979 496.61 235.113C497.474 237.099 497.147 239.402 495.766 241.069L493.165 244.209L451.165 217.927C447.888 215.876 446.894 211.557 448.944 208.279L455.644 197.574Z" fill="black"/>
<path d="M334.452 505.942L31 451L34.1177 470.696C146.992 499.314 211.434 507.85 326.138 524.602C333.707 524.894 340.968 526.656 342.766 519.418C344.335 509.681 337.622 507.436 334.452 505.942Z" fill="black" stroke="black" stroke-width="6" stroke-linejoin="round"/>
<path d="M343.479 459.169L41 402L46.1833 423.851C123.933 439.459 188.161 452.027 335.192 478.585C342.737 478.889 349.975 480.723 351.766 473.192C353.331 463.06 346.64 460.724 343.479 459.169Z" fill="black" stroke="black" stroke-width="6" stroke-linejoin="round"/>
<path d="M358.021 416.456C236.648 394.582 169.34 381.666 51 357L53.0733 379.868C128.735 389.974 196.684 402.964 349.609 435.943C357.267 436.248 359.59 435.563 361.408 428.005C362.996 417.835 361.228 418.016 358.021 416.456Z" fill="black" stroke="black" stroke-width="6" stroke-linejoin="round"/>
<path d="M346.012 361.188C224.307 332.56 180.028 328.832 62 307V332.01C137.153 342.513 204.857 346.677 358.451 383.802C366.108 384.132 370.107 384.995 371.926 376.819C373.513 365.82 349.219 362.876 346.012 361.188Z" fill="black" stroke="black" stroke-width="6" stroke-linejoin="round"/>
<path d="M353.046 307.178C221.44 274.78 171.167 270.711 68 255V280.045C142.688 289.111 209.997 292.2 364.447 331.911C372.104 332.241 376.104 332.062 377.922 323.875C379.51 312.86 356.253 308.868 353.046 307.178Z" fill="black" stroke="black" stroke-width="6" stroke-linejoin="round"/>
<path d="M384.89 279.788C386.477 268.924 370.476 263.957 367.268 262.29C264.187 238.903 201.422 232.076 159.96 224.205C118.498 216.335 99.0187 220.168 76 217V234.498C150.689 243.44 201.414 244.736 355.866 283.906C363.523 284.231 383.071 287.863 384.89 279.788Z" fill="black" stroke="black" stroke-width="6" stroke-linejoin="round"/>
<path d="M393.855 232.049C395.448 220.469 383.444 219.33 380.227 217.554C276.806 192.628 211.801 186.246 170.186 180.283C128.57 174.319 111.084 176.855 88 172V190.649C163.944 199.954 209.766 193.409 364.726 235.155C372.408 235.502 392.031 240.655 393.855 232.049Z" fill="black" stroke="black" stroke-width="6" stroke-linejoin="round"/>
<path d="M401.866 190.007C403.454 178.271 390.46 171.12 387.349 171.12C284.69 142.789 220.401 140.438 178.92 134.394C137.439 128.351 120.01 130.921 97 126V146.986C174.772 146.986 218.324 149.084 372.831 186.859C382.164 191.056 400.048 198.729 401.866 190.007Z" fill="black" stroke="black" stroke-width="6" stroke-linejoin="round"/>
<path d="M107 91L124.739 60.9259L155 35" stroke="black" stroke-width="6" stroke-linecap="round" stroke-linejoin="round"/>
<path d="M175 30C157.03 49.0098 142.91 66.1301 133 86" stroke="black" stroke-width="11" stroke-linecap="round"/>
<path d="M165.541 88.5851C178.182 52.772 191.596 41.6817 216 26L190.256 27.0431C168.832 47.5549 159.731 60.0271 151.124 82.3266C149.801 92.351 159.362 94.8437 165.541 88.5851Z" fill="black" stroke="black" stroke-linecap="round"/>
<path d="M199.533 88.1459C222.575 39.5396 255.83 31.6205 276 26.0692L233.633 24C221.955 31.9194 199.87 41.8949 181.966 75.7306C177.363 88.7715 190.203 97.3687 199.533 88.1459Z" fill="black" stroke="black" stroke-linecap="round"/>
<path d="M336.695 36.0634C337.143 36.1352 337.578 36.2221 338 36.3246L336.695 36.0634C315.681 32.6988 266.263 62.7072 253.081 92.9474C239.618 123.833 221.676 101.797 230.22 75.1242C247.956 42.3392 269.833 32.6735 281.402 25L336.695 36.0634Z" fill="black"/>
<path d="M338 36.3246C317.805 31.4188 266.544 62.0622 253.081 92.9474C239.618 123.833 221.676 101.797 230.22 75.1242C247.956 42.3392 269.833 32.6735 281.402 25L338 36.3246Z" stroke="black" stroke-linecap="round" stroke-linejoin="round"/>
<path d="M283.488 85.9296C286.605 59.9246 337.725 36 338.556 36L377 47.4422C365.895 49.8382 353.102 52.6432 337.517 66.1658C321.932 79.6884 311.542 94.2512 302.19 103.613C292.839 112.975 280.371 111.935 283.488 85.9296Z" fill="black" stroke="black"/>
<path d="M28 536.268C28 536.268 32.1763 509.067 35.3085 508.021C38.4407 506.975 39.4848 544.637 49.9255 569.745C60.3663 594.853 28 536.268 28 536.268Z" fill="black" stroke="black"/>
<path d="M53.1605 522.379C57.3161 505.8 74.1609 502.87 74.9774 517.198C75.7369 530.528 89.0072 602.819 121.398 622.508C123.801 623.634 126.326 624.792 129 626C126.357 625.162 123.824 623.983 121.398 622.508C102.907 613.846 91.6756 607.086 76.0163 593.878C55.8693 551.858 49.005 538.959 53.1605 522.379Z" fill="black" stroke="black"/>
<path d="M119.923 527.488C120.597 514.829 96.848 512.457 95 521.244C97.442 565.571 105.97 593.078 129.269 629.467L176 643C132.564 609.717 119.249 540.147 119.923 527.488Z" fill="black" stroke="black"/>
<path d="M173.474 552.946C153.195 514.532 137 516.855 137 552.946C148.179 601.71 161.194 615.256 181.811 644.72L236 654C214.322 642.337 203.585 633.754 189.105 611.722C178.684 589.037 181.811 575.632 173.474 552.946Z" fill="black" stroke="black"/>
<path d="M219.215 540.666C216.129 524.073 192.866 526.186 186.293 540.666C179.72 555.146 198.455 623.152 236.704 654.741L256.251 662L283 657.852C234.935 633.574 222.301 557.259 219.215 540.666Z" fill="black" stroke="black"/>
<path d="M272.054 650.047C272.032 650.031 272.014 650.015 272 650L272.054 650.047C273.368 651.007 289.146 654.15 297 655.625L282.417 659L272.054 650.047Z" fill="black"/>
<path d="M272 650C272.833 650.9 289.014 654.125 297 655.625L282.417 659L272 650Z" stroke="black"/>
<path d="M291 652.91C317.514 632.018 326.077 616.372 339 587C326.054 616.927 318.057 632.975 298.149 656L291 652.91Z" fill="black" stroke="black" stroke-linejoin="round"/>
<path d="M435.698 167.912C437.521 147.123 435.479 136.068 433.624 116C437.244 137.812 439.725 149.9 438.809 173.103L425.328 253.048L406.662 362.063L386.959 464.849L356.887 593.591C354.668 603.255 352.739 610.203 346.517 620.585C338.221 634.428 339.485 636.005 330.962 647.579V653.809L304 659L309.185 653.809C324.513 635.373 333.756 630.876 347.554 598.782L376.589 491.843L398.366 383.866L435.698 167.912Z" fill="black" stroke="black" stroke-linejoin="round"/>
<path d="M845.768 121.864L478.585 124.276L478.987 104.521L845.768 121.864Z" fill="black"/>
<path d="M770.956 86.9031L455.197 87.6747L443.543 70.3608L770.956 86.9031Z" fill="black"/>
<path d="M576.133 160.75L498.153 169.045L498.555 149.291L576.133 160.75Z" fill="black"/>
<path d="M580.281 200.159L502.3 208.454L502.702 188.699L580.281 200.159Z" fill="black"/>
<path d="M576.133 256.16L498.153 264.455L498.555 244.701L576.133 256.16Z" fill="black"/>
<path d="M569.911 297.643L491.93 305.938L492.332 286.183L569.911 297.643Z" fill="black"/>
<path d="M769.584 353.088L482.735 357.134L483.137 337.379L769.584 353.088Z" fill="black"/>
<path d="M621.62 384.621L472.19 391.462L472.592 371.708L621.62 384.621Z" fill="black"/>
<path d="M540.206 430.416L461.17 438.69L461.572 418.935L540.206 430.416Z" fill="black"/>
<path d="M520.391 465.4L451.549 473.881L451.951 454.126L520.391 465.4Z" fill="black"/>
<path d="M530.848 511.581L441.719 519.65L442.121 499.895L530.848 511.581Z" fill="black"/>
<path d="M544.63 555.587L434.811 563.234L435.213 543.479L544.63 555.587Z" fill="black"/>
<path d="M571.881 595.93L423.11 602.785L423.512 583.03L571.881 595.93Z" fill="black"/>
<path d="M496.293 668.759L347.522 675.613L347.924 655.859L496.293 668.759Z" fill="black"/>
<path d="M471.404 701.945L322.632 708.8L323.034 689.045L471.404 701.945Z" fill="black"/>
<path d="M459.022 740.274L310.196 749.788L310.706 724.716L459.022 740.274Z" fill="black"/>
<path d="M438.281 785.906L289.455 795.419L289.965 770.347L438.281 785.906Z" fill="black"/>
<path d="M421.687 831.536L272.861 841.05L273.371 815.978L421.687 831.536Z" fill="black"/>
<path d="M831.612 869.996L303.154 867.444L303.487 851.053L831.612 869.996Z" fill="black"/>
<path d="M671.135 893.951L292.414 893.336L292.796 876.946L671.135 893.951Z" fill="black"/>
<path d="M537.236 921.057L298.631 929.012L299.259 902.008L537.236 921.057Z" fill="black"/>
<path d="M762.51 634.646L383.621 636.819L401.94 621.327L762.51 634.646Z" fill="black"/>
<path d="M428.598 832V828.128L443.36 819.9L506.522 671.07H527.818L590.254 819.416L606.71 828.128V832H530.238V828.128L551.292 819.416L534.836 779.244H477.482L461.026 819.416L481.112 828.128V832H428.598ZM483.048 765.934H529.27L506.28 709.548L483.048 765.934ZM663.245 833.21L598.873 685.59L581.691 676.152V672.28H657.195V676.152L637.351 685.59L680.427 784.568H682.363L724.955 685.348L705.353 676.152V672.28H757.141V676.152L743.105 683.896L677.281 833.21H663.245ZM732.185 832V828.128L746.947 819.9L810.109 671.07H831.405L893.841 819.416L910.297 828.128V832H833.825V828.128L854.879 819.416L838.423 779.244H781.069L764.613 819.416L784.699 828.128V832H732.185ZM786.635 765.934H832.857L809.867 709.548L786.635 765.934ZM913.059 832V828.128L933.629 818.206V686.316L913.059 676.152V672.28H959.039L1052.94 778.276V685.832L1025.35 676.152V672.28H1090.2V676.152L1069.88 686.074V833.21H1054.87L950.569 716.566V818.206L978.157 828.128V832H913.059ZM1153.95 834.42C1143.3 834.42 1133.86 833.371 1125.63 831.274C1117.57 829.015 1109.74 825.95 1102.16 822.078L1099.74 781.18H1104.1L1121.28 810.946C1125.63 814.495 1130.31 817.238 1135.31 819.174C1140.48 821.11 1145.72 822.078 1151.04 822.078C1159.76 822.078 1166.85 820.061 1172.34 816.028C1177.82 811.833 1180.57 805.703 1180.57 797.636C1180.57 792.151 1179.28 787.633 1176.7 784.084C1174.28 780.535 1170.16 777.227 1164.35 774.162C1158.55 770.935 1150.56 767.063 1140.4 762.546C1128.94 757.545 1120.15 751.575 1114.02 744.638C1107.89 737.701 1104.82 729.069 1104.82 718.744C1104.82 712.291 1106.43 706.16 1109.66 700.352C1113.05 694.383 1117.49 689.139 1122.97 684.622C1128.62 679.943 1134.83 676.313 1141.61 673.732C1148.54 671.151 1155.64 669.86 1162.9 669.86C1171.13 669.86 1179.03 670.828 1186.62 672.764C1194.2 674.7 1201.22 677.443 1207.67 680.992L1210.09 719.712H1205.98L1189.04 692.366C1184.84 689.139 1180.73 686.719 1176.7 685.106C1172.82 683.331 1168.39 682.444 1163.39 682.444C1156.77 682.444 1151.29 684.541 1146.93 688.736C1142.57 692.931 1140.4 698.497 1140.4 705.434C1140.4 712.049 1142.73 717.534 1147.41 721.89C1152.25 726.085 1160.56 730.844 1172.34 736.168C1187.02 742.944 1197.83 749.881 1204.77 756.98C1211.7 764.079 1215.17 773.436 1215.17 785.052C1215.17 795.377 1212.19 804.251 1206.22 811.672C1200.25 819.093 1192.59 824.74 1183.23 828.612C1173.87 832.484 1164.11 834.42 1153.95 834.42Z" fill="black"/>
</svg>
