<svg width="261" height="218" viewBox="0 0 261 218" fill="none" xmlns="http://www.w3.org/2000/svg">
<g id="Component 9">
<g id="globe" clip-path="url(#clip0_151_80)">
<path id="Vector" d="M249.644 33.505C249.73 28.325 248.437 24.4449 246.194 24.042C243.951 23.6392 241.388 26.8271 239.667 31.7135L249.644 33.505ZM238.273 37.0485C238.048 38.2998 237.9 39.5125 237.811 40.6892L248.255 42.5646C248.581 41.4304 248.864 40.242 249.089 38.9908C249.314 37.7395 249.462 36.5268 249.551 35.3501L239.107 33.4747C238.781 34.6089 238.498 35.7973 238.273 37.0485ZM257.546 34.924C256.621 30.8074 253.889 27.2624 250.074 25.3438C251.107 27.4958 251.538 30.5348 251.459 33.8309L257.546 34.924ZM242.098 23.9116C237.859 24.3839 234.059 26.7559 231.765 30.2946L237.852 31.3876C238.919 28.2686 240.381 25.5698 242.098 23.9116V23.9116ZM257.825 36.8359L251.36 35.675C251.266 36.8799 251.116 38.1039 250.898 39.3157C250.681 40.5275 250.396 41.7271 250.065 42.8895L256.524 44.0494C257.041 42.9496 257.432 41.7805 257.656 40.5292C257.881 39.2779 257.922 38.046 257.825 36.8359ZM236.469 36.7246C236.687 35.5128 236.972 34.3132 237.303 33.1508L230.838 31.9899C230.326 33.0907 229.93 34.2588 229.706 35.5101C229.481 36.7614 229.446 37.9943 229.543 39.2044L236.002 40.3643C236.102 39.1604 236.252 37.9365 236.469 36.7246V36.7246ZM237.724 42.5353C237.638 47.7153 238.931 51.5955 241.174 51.9983C243.417 52.4011 245.979 49.2133 247.7 44.3268L237.724 42.5353ZM245.27 52.1287C249.509 51.6564 253.309 49.2844 255.608 45.7468L249.521 44.6537C248.449 47.7717 246.987 50.4705 245.27 52.1287ZM229.822 41.1163C230.747 45.2329 233.479 48.778 237.294 50.6965C236.261 48.5445 235.829 45.5056 235.909 42.2094L229.822 41.1163V41.1163Z" fill="#ED8F8F"/>
</g>
<g id="heart" clip-path="url(#clip1_151_80)">
<path id="Vector_2" d="M90.9244 4.05001C87.3512 1.82811 82.7145 3.0227 80.2593 6.45961L79.2975 7.80413L77.9825 6.80244C74.6299 4.24001 69.8412 4.46462 67.0808 7.64018C63.918 11.2841 64.5644 16.8721 68.3177 19.7406L81.2383 29.6031C82.0729 30.2398 83.246 30.0631 83.8561 29.2089L93.2997 15.979C96.0477 12.1316 95.0199 6.60104 90.9244 4.05001V4.05001Z" fill="#49DC72"/>
</g>
<g id="paint-brush" clip-path="url(#clip2_151_80)">
<path id="Vector_3" d="M15.2593 112.053C13.1265 112.993 11.4488 114.551 11.409 117.927C11.4049 118.311 11.1724 118.629 10.8136 118.761C10.2088 118.982 7.78712 118.16 7.12097 117.992C8.76289 122.475 12.2706 125.66 17.1743 123.864C21.3044 122.352 23.2707 118.93 21.7475 114.77C21.6855 114.6 21.5909 114.452 21.5127 114.292L15.2593 112.053V112.053ZM24.9297 89.4141C24.1043 89.7162 23.4644 90.3648 23.0684 91.1111C15.5791 105.127 14.5066 105.784 15.5779 108.711C15.851 109.456 16.2882 110.103 16.8246 110.644L21.3591 112.267C21.7875 112.221 22.2165 112.14 22.6385 111.985C26.02 110.748 27.0736 107.554 29.0231 93.8142C29.1389 92.8858 29.1849 91.912 28.8632 91.0333C28.287 89.4593 26.4601 88.8538 24.9297 89.4141Z" fill="#6A67DF"/>
</g>
<g id="chart-line" clip-path="url(#clip3_151_80)">
<path id="Vector_4" d="M116.112 198.511L87.7833 207.424L81.5113 187.489C81.3289 186.909 80.7116 186.588 80.132 186.77L78.0336 187.43C77.4539 187.613 77.1321 188.23 77.3145 188.809L84.2468 210.843C84.6113 212.001 85.8467 212.645 87.0054 212.281L117.432 202.708C118.012 202.525 118.334 201.908 118.151 201.328L117.491 199.23C117.309 198.65 116.691 198.328 116.112 198.511ZM108.071 180.285L100.329 182.721C98.9275 183.162 98.7585 185.078 100.062 185.758L102.855 187.214L99.5578 193.54L93.2328 190.242C92.1553 189.681 90.8267 190.099 90.2656 191.176L87.1785 197.097C86.8976 197.636 87.1066 198.3 87.6454 198.581L89.5954 199.598C90.1342 199.879 90.7984 199.67 91.0793 199.131L93.1492 195.16L99.4741 198.457C100.552 199.019 101.88 198.601 102.441 197.524L106.756 189.248L109.549 190.704C110.852 191.383 112.327 190.148 111.885 188.746L109.45 181.005C109.268 180.425 108.651 180.103 108.071 180.285Z" fill="#B433C9"/>
</g>
<g id="hand-holding-usd" clip-path="url(#clip4_151_80)">
<path id="Vector_5" d="M234.43 160.358L237.078 162.107C237.169 162.164 237.238 162.249 237.276 162.349C237.314 162.449 237.317 162.559 237.286 162.661C237.203 162.908 236.915 163.037 236.645 162.946L234.738 162.301C234.533 162.231 234.343 162.122 234.179 161.98C233.938 161.767 233.605 161.685 233.323 161.81L231.988 162.403C231.927 162.428 231.87 162.463 231.819 162.505C231.754 162.559 231.7 162.627 231.661 162.702C231.621 162.778 231.597 162.86 231.59 162.945C231.583 163.03 231.593 163.116 231.619 163.197C231.645 163.278 231.686 163.353 231.742 163.418C232.191 163.947 232.751 164.371 233.382 164.66L233.061 165.608C232.902 166.079 233.191 166.607 233.702 166.78L234.632 167.095C235.144 167.268 235.694 167.024 235.853 166.553L236.172 165.61C238.001 166.014 239.833 164.997 240.18 163.205C240.428 161.915 239.725 160.585 238.55 159.805L235.902 158.056C235.811 157.999 235.742 157.914 235.704 157.814C235.666 157.714 235.663 157.604 235.694 157.502C235.777 157.255 236.065 157.126 236.335 157.217L238.242 157.862C238.448 157.932 238.639 158.041 238.804 158.184C239.044 158.396 239.377 158.479 239.659 158.354L240.994 157.761C241.054 157.736 241.109 157.702 241.158 157.661C241.224 157.606 241.278 157.539 241.317 157.463C241.357 157.388 241.381 157.305 241.389 157.22C241.396 157.135 241.387 157.049 241.361 156.968C241.335 156.886 241.293 156.811 241.238 156.746C240.789 156.217 240.229 155.793 239.597 155.504L239.918 154.555C240.078 154.083 239.79 153.556 239.278 153.383L238.347 153.068C237.836 152.895 237.286 153.139 237.127 153.61L236.808 154.553C234.981 154.15 233.147 155.165 232.8 156.958C232.551 158.247 233.257 159.579 234.43 160.358ZM246.859 175.536C246.421 174.749 245.423 174.453 244.577 174.764L238.288 177.048C237.515 177.33 236.67 177.339 235.891 177.073L229.556 174.93C229.328 174.853 229.141 174.689 229.034 174.473C228.928 174.258 228.911 174.01 228.988 173.782C229.065 173.555 229.229 173.368 229.445 173.261C229.66 173.155 229.908 173.138 230.136 173.215L234.33 174.634C235.181 174.923 236.172 174.607 236.593 173.812C236.642 173.721 236.684 173.626 236.716 173.528C236.869 173.073 236.836 172.577 236.623 172.148C236.41 171.718 236.035 171.39 235.581 171.237L227.01 168.337C225.564 167.848 223.995 167.871 222.564 168.402L219.389 169.579L216.422 168.575C216.194 168.498 215.946 168.515 215.731 168.621C215.515 168.728 215.351 168.915 215.274 169.142L213.534 174.285C213.457 174.513 213.474 174.761 213.58 174.976C213.687 175.191 213.874 175.355 214.102 175.432L233.214 181.899C233.992 182.163 234.838 182.154 235.61 181.874L245.905 178.133C246.153 178.043 246.378 177.9 246.564 177.714C246.751 177.528 246.895 177.304 246.986 177.057C247.077 176.809 247.112 176.545 247.091 176.283C247.069 176.02 246.99 175.765 246.86 175.536L246.859 175.536Z" fill="#7CE99B"/>
</g>
</g>
<defs>
<clipPath id="clip0_151_80">
<rect width="29.3196" height="29.3196" fill="white" transform="translate(231.846 21) rotate(10.1801)"/>
</clipPath>
<clipPath id="clip1_151_80">
<rect width="29.9213" height="29.9213" fill="white" transform="translate(63.6641 4.45508) rotate(-8.56278)"/>
</clipPath>
<clipPath id="clip2_151_80">
<rect width="29.6843" height="29.6843" fill="white" transform="translate(0 98.5405) rotate(-20.1076)"/>
</clipPath>
<clipPath id="clip3_151_80">
<rect width="35.1968" height="35.1968" fill="white" transform="translate(75.6641 183.563) rotate(-17.4652)"/>
</clipPath>
<clipPath id="clip4_151_80">
<rect width="32.5748" height="32.5748" fill="white" transform="translate(223.104 146) rotate(18.6928)"/>
</clipPath>
</defs>
</svg>
