<svg width="168" height="29" viewBox="0 0 168 29" fill="none" xmlns="http://www.w3.org/2000/svg">
<path d="M166 2C146.184 16.4849 127.43 23.6485 103.013 24.9745C89.4971 25.7086 76.1654 27 62.6395 27C58.7519 27 52.3724 26.6892 48.7871 25.4375C44.5665 23.9639 39.9309 24.4414 36.0594 22.3125C30.3943 19.1973 18.2356 17.9056 14.6888 11.838C13.657 10.0728 9.21812 8.25 12.5577 8.25C14.9866 8.25 18.3831 7.59748 20.2535 9.06019C21.726 10.2118 27.6447 10.3333 25.7589 10.3333C22.5452 10.3333 18.7859 8.78758 15.7544 7.72917C12.7441 6.67821 7.80607 7.06719 5.33545 4.89352C3.15347 2.97379 1.49989 2.75354 2.13873 4.31481C5.0246 11.3676 8.29537 18.2616 8.29537 25.9583" stroke="white" stroke-width="3" stroke-linecap="round"/>
</svg>
