<svg width="168" height="30" viewBox="0 0 168 30" fill="none" xmlns="http://www.w3.org/2000/svg">
<path d="M2 2C21.8426 16.8373 40.622 24.1751 65.0721 25.5335C78.6061 26.2854 91.9558 27.6082 105.5 27.6082C109.393 27.6082 115.781 27.2899 119.371 26.0077C123.597 24.4983 128.239 24.9873 132.116 22.8067C137.789 19.6157 149.964 18.2926 153.515 12.0773C154.549 10.2692 158.993 8.40206 155.649 8.40206C153.217 8.40206 149.816 7.73367 147.943 9.23195C146.469 10.4116 140.542 10.5361 142.43 10.5361C145.648 10.5361 149.413 8.95272 152.448 7.86855C155.463 6.79202 160.407 7.19047 162.881 4.96392C165.066 2.99748 166.722 2.77187 166.082 4.37113C163.193 11.5955 159.917 18.6573 159.917 26.5412" stroke="white" stroke-width="3" stroke-linecap="round"/>
</svg>
