<svg width="271" height="196" viewBox="0 0 271 196" fill="none" xmlns="http://www.w3.org/2000/svg">
<g clip-path="url(#clip0_708_516)">
<path d="M10.2146 120.419L67.8475 153.584L10.2146 186.749L10.2146 120.419Z" stroke="#640094" stroke-width="4"/>
<path d="M10.2146 46.8046L67.8475 79.9697L10.2146 113.135L10.2146 46.8046Z" stroke="#4D78E8" stroke-width="4"/>
<path d="M137.5 46.8046L195.133 79.9697L137.5 113.135V46.8046Z" stroke="#7A78F3" stroke-width="4"/>
<path d="M201.142 9.99738L258.775 43.1624L201.142 76.3275V9.99738Z" stroke="#985DB5" stroke-width="4"/>
<path d="M201.142 83.6119L258.775 116.777L201.142 149.942V83.6119Z" stroke="#2E0029" stroke-width="4"/>
<path d="M73.8571 9.99738L131.49 43.1624L73.8571 76.3275L73.8571 9.99738Z" stroke="#4FA8BC" stroke-width="4"/>
<path d="M69.8577 83.6119L12.2247 116.777L69.8577 149.942L69.8577 83.6119Z" stroke="#053A8A" stroke-width="4"/>
<path d="M133.5 46.8046L75.8673 79.9697L133.5 113.135V46.8046Z" stroke="#49478D" stroke-width="4"/>
<path d="M69.8577 9.99738L12.2247 43.1624L69.8577 76.3275L69.8577 9.99738Z" stroke="#1694AF" stroke-width="4"/>
<path d="M197.143 9.99738L139.51 43.1624L197.143 76.3275V9.99738Z" stroke="#640094" stroke-width="4"/>
<path d="M260.785 46.8046L203.152 79.9697L260.785 113.135V46.8046Z" stroke="#590050" stroke-width="4"/>
<path d="M260.785 120.419L203.152 153.584L260.785 186.749V120.419Z" stroke="#390634" stroke-width="4"/>
</g>
<defs>
<clipPath id="clip0_708_516">
<rect width="271" height="196" fill="white"/>
</clipPath>
</defs>
</svg>
