<svg width="173" height="44" viewBox="0 0 173 44" fill="none" xmlns="http://www.w3.org/2000/svg">
<path d="M2 2C7.38216 7.38216 13.7552 11.6 19.0514 16.8962C23.1292 20.974 27.7902 26.188 33.4406 28.2427C46.2336 32.8947 58.7685 36.1686 72.1708 39.0821C93.726 43.768 116.73 43.4144 137.524 36.4832C145.107 33.9554 151.413 30.3787 157.745 25.4537C159.073 24.4205 162.322 22.4925 162.816 20.7629C164.016 16.5616 160.515 17.5393 156.033 18.0372C151.457 18.5457 146.924 19.9863 142.342 20.2558C141.604 20.2992 139.67 21.3968 141.454 21.3968C145.934 21.3968 150.413 21.3968 154.892 21.3968C159.829 21.3968 164.79 21.2517 169.725 21.3968C172.626 21.4821 170.576 24.4221 169.979 26.2143C168.409 30.9232 165.064 35.283 162.879 39.6526" stroke="white" stroke-width="3" stroke-linecap="round"/>
</svg>
