<svg width="92" height="65" viewBox="0 0 92 65" fill="none" xmlns="http://www.w3.org/2000/svg">
<path d="M2.29297 11.1576C12.2251 3.85452 22.2231 1.67892 34.3236 2.00597C40.241 2.1659 46.8708 4.43099 52.6267 5.86997C57.6273 7.12012 62.5952 9.35967 65.8966 13.3946C67.9652 15.923 70.147 18.1829 72.3027 20.8176C74.5112 23.5169 74.8604 27.3224 76.2175 30.3759C77.8815 34.1199 78.2512 42.2947 78.2512 46.3912C78.2512 51.3916 77.3361 56.2446 77.3361 61.0338C77.3361 65.7726 73.558 60.4083 72.2518 58.7459C68.6761 54.1949 64.4178 50.1151 60.4564 45.9336C59.3095 44.7229 56.2266 40.7887 57.4059 41.9679C59.462 44.0241 60.6317 46.7827 62.8969 48.6791C67.739 52.733 72.3245 56.165 77.7936 59.2034C81.1239 61.0536 82.2684 56.3041 83.3354 54.1701C85.3478 50.1454 86.9525 48.2143 90.1483 45.0185" stroke="white" stroke-width="3" stroke-linecap="round"/>
</svg>
